<svg width="183" height="48" viewBox="0 0 183 48" fill="none" xmlns="http://www.w3.org/2000/svg">
<path d="M24 44C12.954 44 4 35.046 4 24C4 12.954 12.954 4 24 4C35.046 4 44 12.954 44 24C44 35.046 35.046 44 24 44ZM24 40C28.2435 40 32.3131 38.3143 35.3137 35.3137C38.3143 32.3131 40 28.2435 40 24C40 19.7565 38.3143 15.6869 35.3137 12.6863C32.3131 9.68571 28.2435 8 24 8C19.7565 8 15.6869 9.68571 12.6863 12.6863C9.68571 15.6869 8 19.7565 8 24C8 28.2435 9.68571 32.3131 12.6863 35.3137C15.6869 38.3143 19.7565 40 24 40V40ZM17 28H28C28.2652 28 28.5196 27.8946 28.7071 27.7071C28.8946 27.5196 29 27.2652 29 27C29 26.7348 28.8946 26.4804 28.7071 26.2929C28.5196 26.1054 28.2652 26 28 26H20C18.6739 26 17.4021 25.4732 16.4645 24.5355C15.5268 23.5979 15 22.3261 15 21C15 19.6739 15.5268 18.4021 16.4645 17.4645C17.4021 16.5268 18.6739 16 20 16H22V12H26V16H31V20H20C19.7348 20 19.4804 20.1054 19.2929 20.2929C19.1054 20.4804 19 20.7348 19 21C19 21.2652 19.1054 21.5196 19.2929 21.7071C19.4804 21.8946 19.7348 22 20 22H28C29.3261 22 30.5979 22.5268 31.5355 23.4645C32.4732 24.4021 33 25.6739 33 27C33 28.3261 32.4732 29.5979 31.5355 30.5355C30.5979 31.4732 29.3261 32 28 32H26V36H22V32H17V28Z" fill="#00875F"/>
<path d="M76.1589 26.466H79.8942C79.8193 27.6903 79.4819 28.7771 78.8823 29.7266C78.291 30.676 77.4623 31.4173 76.3962 31.9503C75.3385 32.4833 74.0642 32.7499 72.5734 32.7499C71.4074 32.7499 70.3622 32.55 69.4377 32.1502C68.5132 31.7421 67.722 31.1591 67.0641 30.4012C66.4144 29.6433 65.9189 28.7272 65.5774 27.6528C65.2359 26.5784 65.0652 25.3749 65.0652 24.0424V22.7806C65.0652 21.448 65.2401 20.2445 65.5899 19.1701C65.948 18.0874 66.4561 17.1671 67.114 16.4092C67.7803 15.6513 68.5757 15.0683 69.5002 14.6602C70.4246 14.2521 71.4574 14.0481 72.5984 14.0481C74.1142 14.0481 75.3926 14.3229 76.4337 14.8726C77.4831 15.4223 78.2951 16.1802 78.8698 17.1463C79.4528 18.1124 79.8026 19.2118 79.9192 20.4444H76.1713C76.1297 19.7115 75.984 19.091 75.7341 18.583C75.4842 18.0666 75.1053 17.6793 74.5972 17.4211C74.0975 17.1546 73.4312 17.0214 72.5984 17.0214C71.9738 17.0214 71.4282 17.138 70.9618 17.3712C70.4954 17.6044 70.104 17.9583 69.7875 18.4331C69.471 18.9078 69.2337 19.5075 69.0754 20.232C68.9255 20.9483 68.8505 21.7895 68.8505 22.7556V24.0424C68.8505 24.9835 68.9213 25.8122 69.0629 26.5284C69.2045 27.2364 69.421 27.836 69.7125 28.3274C70.0124 28.8104 70.3955 29.1769 70.8619 29.4268C71.3366 29.6683 71.9071 29.7891 72.5734 29.7891C73.3563 29.7891 74.0018 29.6641 74.5098 29.4143C75.0178 29.1644 75.4051 28.7938 75.6716 28.3024C75.9465 27.811 76.1089 27.1989 76.1589 26.466ZM94.4858 21.7187V24.642H84.9913V21.7187H94.4858ZM86.1031 14.3104V32.5H82.3553V14.3104H86.1031ZM97.1593 14.3104V32.5H93.4239V14.3104H97.1593ZM108.503 14.3104H111.676L116.348 27.6653L121.021 14.3104H124.194L117.623 32.5H115.074L108.503 14.3104ZM106.791 14.3104H109.952L110.527 27.328V32.5H106.791V14.3104ZM122.745 14.3104H125.918V32.5H122.17V27.328L122.745 14.3104ZM128.404 25.8788V25.6164C128.404 24.6253 128.545 23.7134 128.829 22.8805C129.112 22.0393 129.524 21.3106 130.065 20.6943C130.607 20.078 131.273 19.5991 132.064 19.2576C132.855 18.9078 133.763 18.7329 134.788 18.7329C135.812 18.7329 136.724 18.9078 137.524 19.2576C138.323 19.5991 138.994 20.078 139.535 20.6943C140.085 21.3106 140.501 22.0393 140.784 22.8805C141.067 23.7134 141.209 24.6253 141.209 25.6164V25.8788C141.209 26.8616 141.067 27.7735 140.784 28.6147C140.501 29.4476 140.085 30.1763 139.535 30.801C138.994 31.4173 138.327 31.8962 137.536 32.2377C136.745 32.5791 135.837 32.7499 134.813 32.7499C133.788 32.7499 132.876 32.5791 132.077 32.2377C131.286 31.8962 130.615 31.4173 130.065 30.801C129.524 30.1763 129.112 29.4476 128.829 28.6147C128.545 27.7735 128.404 26.8616 128.404 25.8788ZM132.002 25.6164V25.8788C132.002 26.4451 132.052 26.974 132.152 27.4654C132.252 27.9568 132.41 28.3899 132.626 28.7646C132.851 29.1311 133.143 29.4184 133.501 29.6266C133.859 29.8349 134.296 29.939 134.813 29.939C135.312 29.939 135.741 29.8349 136.099 29.6266C136.458 29.4184 136.745 29.1311 136.961 28.7646C137.178 28.3899 137.336 27.9568 137.436 27.4654C137.544 26.974 137.599 26.4451 137.599 25.8788V25.6164C137.599 25.0668 137.544 24.5504 137.436 24.0673C137.336 23.576 137.174 23.1429 136.949 22.7681C136.732 22.385 136.445 22.0851 136.087 21.8686C135.729 21.6521 135.296 21.5438 134.788 21.5438C134.28 21.5438 133.847 21.6521 133.488 21.8686C133.139 22.0851 132.851 22.385 132.626 22.7681C132.41 23.1429 132.252 23.576 132.152 24.0673C132.052 24.5504 132.002 25.0668 132.002 25.6164ZM146.943 21.8686V32.5H143.345V18.9828H146.718L146.943 21.8686ZM146.419 25.2666H145.444C145.444 24.2672 145.573 23.3677 145.831 22.5682C146.09 21.7603 146.452 21.0732 146.918 20.5069C147.385 19.9322 147.939 19.495 148.58 19.1951C149.229 18.887 149.954 18.7329 150.754 18.7329C151.387 18.7329 151.965 18.8245 152.49 19.0077C153.015 19.191 153.465 19.4825 153.839 19.8822C154.222 20.282 154.514 20.8109 154.714 21.4688C154.922 22.1268 155.026 22.9305 155.026 23.8799V32.5H151.403V23.8675C151.403 23.2678 151.32 22.8014 151.153 22.4683C150.987 22.1351 150.741 21.9019 150.416 21.7687C150.1 21.6271 149.708 21.5563 149.242 21.5563C148.759 21.5563 148.338 21.6521 147.98 21.8436C147.63 22.0352 147.339 22.3017 147.106 22.6432C146.881 22.9763 146.71 23.3677 146.593 23.8175C146.477 24.2672 146.419 24.7503 146.419 25.2666ZM163.983 32.7499C162.934 32.7499 161.993 32.5833 161.16 32.2501C160.327 31.9087 159.619 31.4381 159.036 30.8385C158.462 30.2388 158.02 29.5434 157.712 28.7521C157.404 27.9526 157.25 27.1031 157.25 26.2036V25.7039C157.25 24.6795 157.396 23.7425 157.687 22.893C157.979 22.0435 158.395 21.3064 158.936 20.6818C159.486 20.0571 160.152 19.5782 160.935 19.2451C161.718 18.9036 162.601 18.7329 163.584 18.7329C164.541 18.7329 165.391 18.8911 166.132 19.2076C166.873 19.5241 167.494 19.9739 167.994 20.5569C168.502 21.1398 168.885 21.8394 169.143 22.6556C169.401 23.4635 169.53 24.363 169.53 25.3541V26.8532H158.786V24.4546H165.995V24.1798C165.995 23.6801 165.903 23.2345 165.72 22.843C165.545 22.4433 165.279 22.1268 164.92 21.8936C164.562 21.6604 164.104 21.5438 163.546 21.5438C163.071 21.5438 162.663 21.6479 162.322 21.8561C161.98 22.0643 161.701 22.3558 161.485 22.7306C161.277 23.1054 161.118 23.5468 161.01 24.0548C160.91 24.5546 160.86 25.1042 160.86 25.7039V26.2036C160.86 26.745 160.935 27.2447 161.085 27.7028C161.243 28.1608 161.464 28.5564 161.747 28.8896C162.039 29.2227 162.389 29.4809 162.797 29.6641C163.213 29.8474 163.684 29.939 164.208 29.939C164.858 29.939 165.462 29.814 166.02 29.5642C166.586 29.306 167.073 28.9187 167.481 28.4024L169.23 30.3013C168.947 30.7094 168.56 31.1008 168.069 31.4756C167.586 31.8504 167.003 32.1585 166.32 32.4001C165.637 32.6333 164.858 32.7499 163.983 32.7499ZM175.414 30.9759L179 18.9828H182.86L177.426 34.5363C177.309 34.8778 177.151 35.2443 176.951 35.6357C176.759 36.0271 176.497 36.3978 176.164 36.7476C175.839 37.1057 175.427 37.3972 174.927 37.6221C174.436 37.8469 173.832 37.9594 173.116 37.9594C172.774 37.9594 172.495 37.9385 172.279 37.8969C172.062 37.8553 171.804 37.797 171.504 37.722V35.086C171.596 35.086 171.692 35.086 171.791 35.086C171.891 35.0943 171.987 35.0985 172.079 35.0985C172.554 35.0985 172.941 35.0444 173.241 34.9361C173.54 34.8278 173.782 34.6613 173.965 34.4364C174.148 34.2198 174.294 33.9367 174.402 33.5869L175.414 30.9759ZM173.915 18.9828L176.851 28.7771L177.363 32.5874L174.915 32.8498L170.055 18.9828H173.915Z" fill="#E1E1E6"/>
</svg>
