<svg width="176" height="42" viewBox="0 0 176 42" fill="none" xmlns="http://www.w3.org/2000/svg">
<path opacity="0.5" d="M40.0652 2.25671L30.2601 36.9917C30.2102 37.1494 30.0108 37.1967 29.8945 37.0863L23.3301 30.8583L28.2492 13.4514C28.2991 13.2937 28.1495 13.1518 27.9833 13.1991L9.63617 17.8662L3.10498 11.6697C2.98865 11.5593 3.03851 11.3701 3.20469 11.3228L39.7993 2.00444C39.9655 1.97291 40.115 2.11481 40.0652 2.25671Z" fill="#00B37E"/>
<path opacity="0.5" d="M23.3297 30.858L20.8037 39.8452C20.7538 40.0029 20.5544 40.0502 20.4381 39.9398L0.0634003 20.6251C-0.0529313 20.5147 -0.00307518 20.3255 0.163113 20.2782L9.63583 17.8658L23.3297 30.858Z" fill="#00B37E"/>
<path d="M28.2484 13.4511L23.3292 30.858L9.63533 17.8659L27.9825 13.1988C28.1487 13.1515 28.2982 13.2934 28.2484 13.4511Z" fill="#00B37E"/>
<path d="M68.2338 23.466H71.9691C71.8942 24.6903 71.5569 25.7771 70.9572 26.7266C70.3659 27.676 69.5372 28.4173 68.4711 28.9503C67.4134 29.4833 66.1391 29.7499 64.6483 29.7499C63.4823 29.7499 62.4371 29.55 61.5126 29.1502C60.5882 28.7421 59.7969 28.1591 59.139 27.4012C58.4894 26.6433 57.9938 25.7272 57.6523 24.6528C57.3109 23.5784 57.1401 22.3749 57.1401 21.0424V19.7806C57.1401 18.448 57.315 17.2445 57.6648 16.1701C58.023 15.0874 58.531 14.1671 59.189 13.4092C59.8552 12.6513 60.6506 12.0683 61.5751 11.6602C62.4996 11.2521 63.5323 11.0481 64.6733 11.0481C66.1891 11.0481 67.4675 11.3229 68.5086 11.8726C69.558 12.4223 70.37 13.1802 70.9447 14.1463C71.5277 15.1124 71.8775 16.2118 71.9941 17.4444H68.2463C68.2046 16.7115 68.0589 16.091 67.809 15.583C67.5592 15.0666 67.1802 14.6793 66.6722 14.4211C66.1725 14.1546 65.5062 14.0214 64.6733 14.0214C64.0487 14.0214 63.5032 14.138 63.0368 14.3712C62.5704 14.6044 62.1789 14.9583 61.8624 15.4331C61.5459 15.9078 61.3086 16.5075 61.1503 17.232C61.0004 17.9483 60.9255 18.7895 60.9255 19.7556V21.0424C60.9255 21.9835 60.9963 22.8122 61.1378 23.5284C61.2794 24.2364 61.496 24.836 61.7875 25.3274C62.0873 25.8104 62.4704 26.1769 62.9368 26.4268C63.4115 26.6683 63.982 26.7891 64.6483 26.7891C65.4312 26.7891 66.0767 26.6641 66.5847 26.4143C67.0928 26.1644 67.48 25.7938 67.7466 25.3024C68.0214 24.811 68.1838 24.1989 68.2338 23.466ZM86.5608 18.7187V21.642H77.0662V18.7187H86.5608ZM78.1781 11.3104V29.5H74.4302V11.3104H78.1781ZM89.2342 11.3104V29.5H85.4989V11.3104H89.2342ZM100.578 11.3104H103.751L108.423 24.6653L113.096 11.3104H116.269L109.697 29.5H107.149L100.578 11.3104ZM98.8662 11.3104H102.027L102.602 24.328V29.5H98.8662V11.3104ZM114.82 11.3104H117.993V29.5H114.245V24.328L114.82 11.3104ZM120.479 22.8788V22.6164C120.479 21.6253 120.62 20.7134 120.904 19.8805C121.187 19.0393 121.599 18.3106 122.14 17.6943C122.682 17.078 123.348 16.5991 124.139 16.2576C124.93 15.9078 125.838 15.7329 126.863 15.7329C127.887 15.7329 128.799 15.9078 129.599 16.2576C130.398 16.5991 131.069 17.078 131.61 17.6943C132.16 18.3106 132.576 19.0393 132.859 19.8805C133.142 20.7134 133.284 21.6253 133.284 22.6164V22.8788C133.284 23.8616 133.142 24.7735 132.859 25.6147C132.576 26.4476 132.16 27.1763 131.61 27.801C131.069 28.4173 130.402 28.8962 129.611 29.2377C128.82 29.5791 127.912 29.7499 126.888 29.7499C125.863 29.7499 124.951 29.5791 124.152 29.2377C123.36 28.8962 122.69 28.4173 122.14 27.801C121.599 27.1763 121.187 26.4476 120.904 25.6147C120.62 24.7735 120.479 23.8616 120.479 22.8788ZM124.077 22.6164V22.8788C124.077 23.4451 124.127 23.974 124.227 24.4654C124.327 24.9568 124.485 25.3899 124.701 25.7646C124.926 26.1311 125.218 26.4184 125.576 26.6266C125.934 26.8349 126.371 26.939 126.888 26.939C127.387 26.939 127.816 26.8349 128.174 26.6266C128.533 26.4184 128.82 26.1311 129.036 25.7646C129.253 25.3899 129.411 24.9568 129.511 24.4654C129.619 23.974 129.674 23.4451 129.674 22.8788V22.6164C129.674 22.0668 129.619 21.5504 129.511 21.0673C129.411 20.576 129.249 20.1429 129.024 19.7681C128.807 19.385 128.52 19.0851 128.162 18.8686C127.804 18.6521 127.371 18.5438 126.863 18.5438C126.355 18.5438 125.922 18.6521 125.563 18.8686C125.214 19.0851 124.926 19.385 124.701 19.7681C124.485 20.1429 124.327 20.576 124.227 21.0673C124.127 21.5504 124.077 22.0668 124.077 22.6164ZM139.018 18.8686V29.5H135.42V15.9828H138.793L139.018 18.8686ZM138.493 22.2666H137.519C137.519 21.2672 137.648 20.3677 137.906 19.5682C138.164 18.7603 138.527 18.0732 138.993 17.5069C139.46 16.9322 140.013 16.495 140.655 16.1951C141.304 15.887 142.029 15.7329 142.828 15.7329C143.461 15.7329 144.04 15.8245 144.565 16.0077C145.09 16.191 145.539 16.4825 145.914 16.8822C146.297 17.282 146.589 17.8109 146.789 18.4688C146.997 19.1268 147.101 19.9305 147.101 20.8799V29.5H143.478V20.8675C143.478 20.2678 143.395 19.8014 143.228 19.4683C143.062 19.1351 142.816 18.9019 142.491 18.7687C142.175 18.6271 141.783 18.5563 141.317 18.5563C140.834 18.5563 140.413 18.6521 140.055 18.8436C139.705 19.0352 139.414 19.3017 139.181 19.6432C138.956 19.9763 138.785 20.3677 138.668 20.8175C138.552 21.2672 138.493 21.7503 138.493 22.2666ZM156.058 29.7499C155.009 29.7499 154.068 29.5833 153.235 29.2501C152.402 28.9087 151.694 28.4381 151.111 27.8385C150.537 27.2388 150.095 26.5434 149.787 25.7521C149.479 24.9526 149.325 24.1031 149.325 23.2036V22.7039C149.325 21.6795 149.471 20.7425 149.762 19.893C150.054 19.0435 150.47 18.3064 151.011 17.6818C151.561 17.0571 152.227 16.5782 153.01 16.2451C153.793 15.9036 154.676 15.7329 155.659 15.7329C156.616 15.7329 157.466 15.8911 158.207 16.2076C158.948 16.5241 159.569 16.9739 160.069 17.5569C160.577 18.1398 160.96 18.8394 161.218 19.6556C161.476 20.4635 161.605 21.363 161.605 22.3541V23.8532H150.861V21.4546H158.07V21.1798C158.07 20.6801 157.978 20.2345 157.795 19.843C157.62 19.4433 157.353 19.1268 156.995 18.8936C156.637 18.6604 156.179 18.5438 155.621 18.5438C155.146 18.5438 154.738 18.6479 154.397 18.8561C154.055 19.0643 153.776 19.3558 153.56 19.7306C153.352 20.1054 153.193 20.5468 153.085 21.0548C152.985 21.5546 152.935 22.1042 152.935 22.7039V23.2036C152.935 23.745 153.01 24.2447 153.16 24.7028C153.318 25.1608 153.539 25.5564 153.822 25.8896C154.114 26.2227 154.463 26.4809 154.872 26.6641C155.288 26.8474 155.759 26.939 156.283 26.939C156.933 26.939 157.537 26.814 158.095 26.5642C158.661 26.306 159.148 25.9187 159.556 25.4024L161.305 27.3013C161.022 27.7094 160.635 28.1008 160.144 28.4756C159.66 28.8504 159.077 29.1585 158.395 29.4001C157.712 29.6333 156.933 29.7499 156.058 29.7499ZM167.489 27.9759L171.075 15.9828H174.935L169.501 31.5363C169.384 31.8778 169.226 32.2443 169.026 32.6357C168.834 33.0271 168.572 33.3978 168.239 33.7476C167.914 34.1057 167.502 34.3972 167.002 34.6221C166.511 34.8469 165.907 34.9594 165.191 34.9594C164.849 34.9594 164.57 34.9385 164.354 34.8969C164.137 34.8553 163.879 34.797 163.579 34.722V32.086C163.671 32.086 163.766 32.086 163.866 32.086C163.966 32.0943 164.062 32.0985 164.154 32.0985C164.628 32.0985 165.016 32.0444 165.316 31.9361C165.615 31.8278 165.857 31.6613 166.04 31.4364C166.223 31.2198 166.369 30.9367 166.477 30.5869L167.489 27.9759ZM165.99 15.9828L168.926 25.7771L169.438 29.5874L166.99 29.8498L162.13 15.9828H165.99Z" fill="#E1E1E6"/>
</svg>
